<?xml version="1.0" encoding="UTF-8" standalone="no"?>
<!-- Created with Inkscape (http://www.inkscape.org/) -->

<svg
   xmlns:dc="http://purl.org/dc/elements/1.1/"
   xmlns:cc="http://creativecommons.org/ns#"
   xmlns:rdf="http://www.w3.org/1999/02/22-rdf-syntax-ns#"
   xmlns:svg="http://www.w3.org/2000/svg"
   xmlns="http://www.w3.org/2000/svg"
   xmlns:xlink="http://www.w3.org/1999/xlink"
   xmlns:sodipodi="http://sodipodi.sourceforge.net/DTD/sodipodi-0.dtd"
   xmlns:inkscape="http://www.inkscape.org/namespaces/inkscape"
   version="1.0"
   width="96"
   height="96"
   id="svg2408"
   inkscape:version="0.91 r13725"
   sodipodi:docname="system-shutdown.svg">
  <sodipodi:namedview
     pagecolor="#ffffff"
     bordercolor="#666666"
     borderopacity="1"
     objecttolerance="10"
     gridtolerance="10"
     guidetolerance="10"
     inkscape:pageopacity="0"
     inkscape:pageshadow="2"
     inkscape:window-width="1022"
     inkscape:window-height="577"
     id="namedview134"
     showgrid="false"
     inkscape:zoom="2.4583333"
     inkscape:cx="47.999998"
     inkscape:cy="47.999998"
     inkscape:window-x="0"
     inkscape:window-y="21"
     inkscape:window-maximized="0"
     inkscape:current-layer="svg2408" />
  <defs
     id="defs2410">
    <linearGradient
       x1="45.447727"
       y1="92.539597"
       x2="45.447727"
       y2="7.0165396"
       id="ButtonShadow"
       gradientUnits="userSpaceOnUse"
       gradientTransform="scale(1.0058652,0.994169)">
      <stop
         id="stop3750"
         style="stop-color:#000000;stop-opacity:1"
         offset="0" />
      <stop
         id="stop3752"
         style="stop-color:#000000;stop-opacity:0.58823532"
         offset="1" />
    </linearGradient>
    <linearGradient
       id="linearGradient3737">
      <stop
         id="stop3739"
         style="stop-color:#ffffff;stop-opacity:1"
         offset="0" />
      <stop
         id="stop3741"
         style="stop-color:#ffffff;stop-opacity:0"
         offset="1" />
    </linearGradient>
    <filter
       color-interpolation-filters="sRGB"
       id="filter3174">
      <feGaussianBlur
         id="feGaussianBlur3176"
         stdDeviation="1.71" />
    </filter>
    <linearGradient
       x1="36.357143"
       y1="6"
       x2="36.357143"
       y2="63.893143"
       id="linearGradient3188"
       xlink:href="#linearGradient3737"
       gradientUnits="userSpaceOnUse" />
    <filter
       x="-0.192"
       y="-0.192"
       width="1.3839999"
       height="1.3839999"
       color-interpolation-filters="sRGB"
       id="filter3794">
      <feGaussianBlur
         id="feGaussianBlur3796"
         stdDeviation="5.28" />
    </filter>
    <linearGradient
       x1="48"
       y1="20.220806"
       x2="48"
       y2="138.66119"
       id="linearGradient3613"
       xlink:href="#linearGradient3737"
       gradientUnits="userSpaceOnUse" />
    <radialGradient
       cx="48"
       cy="90.171875"
       r="42"
       fx="48"
       fy="90.171875"
       id="radialGradient3619"
       xlink:href="#linearGradient3737"
       gradientUnits="userSpaceOnUse"
       gradientTransform="matrix(1.1573129,0,0,0.99590774,-7.5510206,0.19713193)" />
    <clipPath
       id="clipPath3613">
      <rect
         width="84"
         height="84"
         rx="6"
         ry="6"
         x="6"
         y="6"
         id="rect3615"
         style="fill:#ffffff;fill-opacity:1;fill-rule:nonzero;stroke:none" />
    </clipPath>
    <linearGradient
       x1="48"
       y1="90"
       x2="48"
       y2="5.9877172"
       id="linearGradient3617"
       xlink:href="#linearGradient4081"
       gradientUnits="userSpaceOnUse" />
    <linearGradient
       x1="45.447727"
       y1="92.539597"
       x2="45.447727"
       y2="7.0165396"
       id="ButtonShadow-0"
       gradientUnits="userSpaceOnUse"
       gradientTransform="matrix(1.0058652,0,0,0.994169,100,0)">
      <stop
         id="stop3750-8"
         style="stop-color:#000000;stop-opacity:1"
         offset="0" />
      <stop
         id="stop3752-5"
         style="stop-color:#000000;stop-opacity:0.58823532"
         offset="1" />
    </linearGradient>
    <linearGradient
       x1="32.251034"
       y1="6.1317081"
       x2="32.251034"
       y2="90.238609"
       id="linearGradient3780"
       xlink:href="#ButtonShadow-0"
       gradientUnits="userSpaceOnUse"
       gradientTransform="matrix(1.0238095,0,0,1.0119048,-1.1428571,-98.071429)" />
    <linearGradient
       x1="32.251034"
       y1="6.1317081"
       x2="32.251034"
       y2="90.238609"
       id="linearGradient3772"
       xlink:href="#ButtonShadow-0"
       gradientUnits="userSpaceOnUse"
       gradientTransform="matrix(1.0238095,0,0,1.0119048,-1.1428571,-98.071429)" />
    <linearGradient
       x1="32.251034"
       y1="6.1317081"
       x2="32.251034"
       y2="90.238609"
       id="linearGradient3725"
       xlink:href="#ButtonShadow-0"
       gradientUnits="userSpaceOnUse"
       gradientTransform="matrix(1.0238095,0,0,1.0119048,-1.1428571,-98.071429)" />
    <linearGradient
       x1="32.251034"
       y1="6.1317081"
       x2="32.251034"
       y2="90.238609"
       id="linearGradient3721"
       xlink:href="#ButtonShadow-0"
       gradientUnits="userSpaceOnUse"
       gradientTransform="translate(0,-97)" />
    <linearGradient
       x1="32.251034"
       y1="6.1317081"
       x2="32.251034"
       y2="90.238609"
       id="linearGradient3026"
       xlink:href="#ButtonShadow-0"
       gradientUnits="userSpaceOnUse"
       gradientTransform="matrix(1.0238095,0,0,1.0119048,-1.1428571,-98.071429)" />
    <linearGradient
       id="linearGradient4081">
      <stop
         id="stop4083"
         style="stop-color:#8c8c8c;stop-opacity:1"
         offset="0" />
      <stop
         id="stop4085"
         style="stop-color:#dcdcdc;stop-opacity:1"
         offset="1" />
    </linearGradient>
    <linearGradient
       id="linearGradient4281-6">
      <stop
         id="stop4283-9"
         style="stop-color:#1e1e1e;stop-opacity:1"
         offset="0" />
      <stop
         id="stop4285-8"
         style="stop-color:#505050;stop-opacity:1"
         offset="1" />
    </linearGradient>
    <linearGradient
       x1="48"
       y1="16"
       x2="48"
       y2="80"
       id="linearGradient4416"
       xlink:href="#linearGradient4281-6"
       gradientUnits="userSpaceOnUse"
       gradientTransform="translate(68,0)" />
    <clipPath
       id="clipPath4194-1">
      <rect
         width="84"
         height="84"
         rx="6"
         ry="6"
         x="6"
         y="6"
         id="rect4196-1"
         style="fill:#ff00ff;fill-opacity:1;fill-rule:nonzero;stroke:none" />
    </clipPath>
    <linearGradient
       x1="48.233639"
       y1="48.047016"
       x2="126.13924"
       y2="66.232674"
       id="linearGradient4077-0"
       xlink:href="#linearGradient4071-3"
       gradientUnits="userSpaceOnUse" />
    <linearGradient
       id="linearGradient4071-3">
      <stop
         id="stop4073-8"
         style="stop-color:#000000;stop-opacity:1"
         offset="0" />
      <stop
         id="stop4075-4"
         style="stop-color:#000000;stop-opacity:0"
         offset="1" />
    </linearGradient>
    <linearGradient
       x1="48.055065"
       y1="48.031517"
       x2="126.67282"
       y2="62.838562"
       id="linearGradient4069-9"
       xlink:href="#linearGradient4047-2"
       gradientUnits="userSpaceOnUse" />
    <linearGradient
       id="linearGradient4047-2">
      <stop
         id="stop4049-0"
         style="stop-color:#000000;stop-opacity:1"
         offset="0" />
      <stop
         id="stop4051-5"
         style="stop-color:#000000;stop-opacity:0"
         offset="1" />
    </linearGradient>
    <linearGradient
       x1="47.997307"
       y1="48.028725"
       x2="127.05216"
       y2="60.289631"
       id="linearGradient4061-6"
       xlink:href="#linearGradient4047-2"
       gradientUnits="userSpaceOnUse" />
    <linearGradient
       x1="47.99826"
       y1="48.028797"
       x2="127.41583"
       y2="57.664623"
       id="linearGradient4053-2"
       xlink:href="#linearGradient4047-2"
       gradientUnits="userSpaceOnUse" />
    <linearGradient
       x1="48.233643"
       y1="48.04702"
       x2="126.13924"
       y2="66.232674"
       id="linearGradient4145-0"
       xlink:href="#linearGradient4115-2"
       gradientUnits="userSpaceOnUse" />
    <linearGradient
       id="linearGradient4115-2">
      <stop
         id="stop4117-3"
         style="stop-color:#ffffff;stop-opacity:1"
         offset="0" />
      <stop
         id="stop4119-6"
         style="stop-color:#ffffff;stop-opacity:0"
         offset="1" />
    </linearGradient>
    <linearGradient
       x1="48.055069"
       y1="48.031521"
       x2="126.67282"
       y2="62.838566"
       id="linearGradient4137-7"
       xlink:href="#linearGradient4115-2"
       gradientUnits="userSpaceOnUse" />
    <linearGradient
       x1="47.997311"
       y1="48.028728"
       x2="127.05216"
       y2="60.289635"
       id="linearGradient4129-8"
       xlink:href="#linearGradient4115-2"
       gradientUnits="userSpaceOnUse" />
    <linearGradient
       x1="47.998264"
       y1="48.028801"
       x2="127.41583"
       y2="57.664627"
       id="linearGradient4121-6"
       xlink:href="#linearGradient4115-2"
       gradientUnits="userSpaceOnUse" />
    <linearGradient
       x1="48.233639"
       y1="48.047016"
       x2="126.13924"
       y2="66.232674"
       id="linearGradient4089-7"
       xlink:href="#linearGradient4071-3"
       gradientUnits="userSpaceOnUse" />
    <linearGradient
       x1="48.055065"
       y1="48.031517"
       x2="126.67282"
       y2="62.838562"
       id="linearGradient4091-0"
       xlink:href="#linearGradient4047-2"
       gradientUnits="userSpaceOnUse" />
    <linearGradient
       x1="47.997307"
       y1="48.028725"
       x2="127.05216"
       y2="60.289631"
       id="linearGradient4093-5"
       xlink:href="#linearGradient4047-2"
       gradientUnits="userSpaceOnUse" />
    <linearGradient
       x1="47.99826"
       y1="48.028797"
       x2="127.41583"
       y2="57.664623"
       id="linearGradient4095-8"
       xlink:href="#linearGradient4047-2"
       gradientUnits="userSpaceOnUse" />
    <linearGradient
       x1="48.233639"
       y1="48.047016"
       x2="126.13924"
       y2="66.232674"
       id="linearGradient4107-8"
       xlink:href="#linearGradient4071-3"
       gradientUnits="userSpaceOnUse" />
    <linearGradient
       x1="48.055065"
       y1="48.031517"
       x2="126.67282"
       y2="62.838562"
       id="linearGradient4109-3"
       xlink:href="#linearGradient4047-2"
       gradientUnits="userSpaceOnUse" />
    <linearGradient
       x1="47.997307"
       y1="48.028725"
       x2="127.05216"
       y2="60.289631"
       id="linearGradient4111-3"
       xlink:href="#linearGradient4047-2"
       gradientUnits="userSpaceOnUse" />
    <linearGradient
       x1="47.99826"
       y1="48.028797"
       x2="127.41583"
       y2="57.664623"
       id="linearGradient4113-5"
       xlink:href="#linearGradient4047-2"
       gradientUnits="userSpaceOnUse" />
    <linearGradient
       x1="48.233643"
       y1="48.04702"
       x2="126.13924"
       y2="66.232674"
       id="linearGradient4157-8"
       xlink:href="#linearGradient4115-2"
       gradientUnits="userSpaceOnUse" />
    <linearGradient
       x1="48.055069"
       y1="48.031521"
       x2="126.67282"
       y2="62.838566"
       id="linearGradient4159-8"
       xlink:href="#linearGradient4115-2"
       gradientUnits="userSpaceOnUse" />
    <linearGradient
       x1="47.997311"
       y1="48.028728"
       x2="127.05216"
       y2="60.289635"
       id="linearGradient4161-2"
       xlink:href="#linearGradient4115-2"
       gradientUnits="userSpaceOnUse" />
    <linearGradient
       x1="47.998264"
       y1="48.028801"
       x2="127.41583"
       y2="57.664627"
       id="linearGradient4163-3"
       xlink:href="#linearGradient4115-2"
       gradientUnits="userSpaceOnUse" />
    <radialGradient
       cx="48"
       cy="90.171875"
       r="42"
       fx="48"
       fy="90.171875"
       id="radialGradient3619-8"
       xlink:href="#linearGradient3737-6"
       gradientUnits="userSpaceOnUse"
       gradientTransform="matrix(1.1573129,0,0,0.99590774,-7.551021,0.1971319)" />
    <linearGradient
       id="linearGradient3737-6">
      <stop
         id="stop3739-9"
         style="stop-color:#ffffff;stop-opacity:1"
         offset="0" />
      <stop
         id="stop3741-6"
         style="stop-color:#ffffff;stop-opacity:0"
         offset="1" />
    </linearGradient>
    <linearGradient
       x1="36.357143"
       y1="6"
       x2="36.357143"
       y2="63.893143"
       id="linearGradient3047"
       xlink:href="#linearGradient3737-6"
       gradientUnits="userSpaceOnUse" />
    <radialGradient
       cx="48.410488"
       cy="47.59774"
       r="30.640047"
       fx="48.410488"
       fy="47.59774"
       id="radialGradient3814-9"
       xlink:href="#linearGradient3796-9"
       gradientUnits="userSpaceOnUse"
       gradientTransform="matrix(1,0,0,0.98495914,-30,0.71591078)" />
    <linearGradient
       id="linearGradient3796-9">
      <stop
         id="stop3798-4"
         style="stop-color:#ffffff;stop-opacity:0"
         offset="0" />
      <stop
         id="stop3800-9"
         style="stop-color:#ffffff;stop-opacity:1"
         offset="1" />
    </linearGradient>
    <linearGradient
       id="linearGradient3780-6-5">
      <stop
         id="stop3782-4"
         style="stop-color:#000000;stop-opacity:0"
         offset="0" />
      <stop
         id="stop3784-9"
         style="stop-color:#000000;stop-opacity:1"
         offset="1" />
    </linearGradient>
    <radialGradient
       cx="48.265148"
       cy="47.886696"
       r="28.878813"
       fx="48.265148"
       fy="47.886696"
       id="radialGradient5008"
       xlink:href="#linearGradient3780-6-5"
       gradientUnits="userSpaceOnUse"
       gradientTransform="matrix(1,0,0,1.013812,-30,-0.66140908)" />
  </defs>
  <metadata
     id="metadata2413">
    <rdf:RDF>
      <cc:Work
         rdf:about="">
        <dc:format>image/svg+xml</dc:format>
        <dc:type
           rdf:resource="http://purl.org/dc/dcmitype/StillImage" />
        <dc:title />
      </cc:Work>
    </rdf:RDF>
  </metadata>
  <g
     id="layer2"
     style="display:none">
    <rect
       width="86"
       height="85"
       rx="6"
       ry="6"
       x="5"
       y="7"
       id="rect3745"
       style="opacity:0.9;fill:url(#ButtonShadow);fill-opacity:1;fill-rule:nonzero;stroke:none;filter:url(#filter3174)" />
  </g>
  <g
     id="layer3">
    <path
       d="m 12,-95.03125 c -5.5110903,0 -10.03125,4.52016 -10.03125,10.03125 l 0,71 c 0,5.5110902 4.5201598,10.03125 10.03125,10.03125 l 72,0 c 5.51109,0 10.03125,-4.5201597 10.03125,-10.03125 l 0,-71 c 0,-5.51109 -4.52016,-10.03125 -10.03125,-10.03125 l -72,0 z"
       transform="scale(1,-1)"
       id="path3786"
       style="opacity:0.07999998;fill:url(#linearGradient3026);fill-opacity:1;fill-rule:nonzero;stroke:none;display:inline" />
    <path
       d="m 12,-94.03125 c -4.971633,0 -9.03125,4.059617 -9.03125,9.03125 l 0,71 c 0,4.9716329 4.0596171,9.03125 9.03125,9.03125 l 72,0 c 4.971633,0 9.03125,-4.059617 9.03125,-9.03125 l 0,-71 c 0,-4.971633 -4.059617,-9.03125 -9.03125,-9.03125 l -72,0 z"
       transform="scale(1,-1)"
       id="path3778"
       style="opacity:0.1;fill:url(#linearGradient3780);fill-opacity:1;fill-rule:nonzero;stroke:none;display:inline" />
    <path
       d="m 12,-93 c -4.4091333,0 -8,3.590867 -8,8 l 0,71 c 0,4.4091333 3.5908667,8 8,8 l 72,0 c 4.409133,0 8,-3.5908667 8,-8 l 0,-71 c 0,-4.409133 -3.590867,-8 -8,-8 l -72,0 z"
       transform="scale(1,-1)"
       id="path3770"
       style="opacity:0.2;fill:url(#linearGradient3772);fill-opacity:1;fill-rule:nonzero;stroke:none;display:inline" />
    <rect
       width="86"
       height="85"
       rx="7"
       ry="7"
       x="5"
       y="-92"
       transform="scale(1,-1)"
       id="rect3723"
       style="opacity:0.3;fill:url(#linearGradient3725);fill-opacity:1;fill-rule:nonzero;stroke:none;display:inline" />
    <rect
       width="84"
       height="84"
       rx="6"
       ry="6"
       x="6"
       y="-91"
       transform="scale(1,-1)"
       id="rect3716"
       style="opacity:0.45;fill:url(#linearGradient3721);fill-opacity:1;fill-rule:nonzero;stroke:none;display:inline" />
  </g>
  <g
     id="layer5"
     style="display:inline">
    <rect
       width="66"
       height="66"
       rx="12"
       ry="12"
       x="15"
       y="15"
       clip-path="url(#clipPath3613)"
       id="rect3171"
       style="opacity:0.3;fill:url(#linearGradient3613);fill-opacity:1;fill-rule:nonzero;stroke:#ffffff;stroke-width:0.5;stroke-linecap:round;stroke-linejoin:miter;stroke-miterlimit:4;stroke-opacity:1;stroke-dasharray:none;stroke-dashoffset:0;filter:url(#filter3794)" />
  </g>
  <path
     style="color:#000000;display:inline;overflow:visible;visibility:visible;fill:#f0f0f0;fill-opacity:1;stroke:none;stroke-width:6;marker:none;enable-background:accumulate"
     id="rect4223"
     inkscape:connector-curvature="0"
     d="m 48,16 c -2.216,0 -4,1.784 -4,4 l 0,24 c 0,2.216 1.784,4 4,4 2.216,0 4,-1.784 4,-4 l 0,-24 c 0,-2.216 -1.784,-4 -4,-4 z m 11.6875,7.1875 A 4.0004,4.0004 0 0 0 58,30.6875 C 67.60688,36.234037 70.85904,48.393116 65.3125,58 59.76596,67.606884 47.60688,70.859037 38,65.3125 28.393116,59.765963 25.140963,47.606884 30.6875,38 32.44297,34.959439 34.95944,32.442968 38,30.6875 A 4.0040264,4.0040264 0 0 0 34,23.75 C 29.743638,26.207412 26.207411,29.743638 23.75,34 16.041703,47.351162 20.648838,64.541703 34,72.25 47.35116,79.958297 64.5417,75.351162 72.25,62 79.9583,48.648838 75.35116,31.458297 62,23.75 a 4.0004,4.0004 0 0 0 -2.3125,-0.5625 z" />
  <path
     style="color:#000000;display:inline;overflow:visible;visibility:visible;opacity:0.6;fill:#ffffff;fill-opacity:1;stroke:none;stroke-width:6;marker:none;enable-background:accumulate"
     id="path4289"
     inkscape:connector-curvature="0"
     d="M 55.96875,27.625 A 4.0004,4.0004 0 0 0 58,31.6875 c 6.353005,3.667909 9.911799,10.230219 10,17.03125 C 68.265555,41.568223 64.662598,34.534153 58,30.6875 A 4.0004,4.0004 0 0 1 55.96875,27.625 Z m -16,0.1875 A 4.0040264,4.0040264 0 0 1 38,30.6875 C 34.959439,32.442968 32.442969,34.959439 30.6875,38 28.808872,41.253879 27.954825,44.797901 28,48.28125 28.117352,45.121342 28.987616,41.944286 30.6875,39 32.442969,35.959439 34.959439,33.442968 38,31.6875 a 4.0040264,4.0040264 0 0 0 1.96875,-3.875 z M 44,44 l 0,1 c 0,2.216 1.784,4 4,4 2.216,0 4,-1.784 4,-4 l 0,-1 c 0,2.216 -1.784,4 -4,4 -2.216,0 -4,-1.784 -4,-4 z M 20.03125,48.59375 C 19.908198,58.408402 24.927808,68.012167 34,73.25 47.351162,80.958297 64.541703,76.351162 72.25,63 74.838106,58.51727 76.022151,53.594143 75.96875,48.75 75.856274,53.265573 74.658843,57.827762 72.25,62 64.541703,75.351162 47.351162,79.958297 34,72.25 25.2383,67.19143 20.252111,58.054642 20.03125,48.59375 Z" />
  <path
     style="color:#000000;display:inline;overflow:visible;visibility:visible;opacity:0.1;fill:#000000;fill-opacity:1;stroke:none;stroke-width:6;marker:none;enable-background:accumulate"
     id="path4321"
     inkscape:connector-curvature="0"
     d="m 48,16 c -2.609899,-0.09191 -4.394451,2.55436 -4,4.98453 0.01371,7.808354 -0.02742,15.618083 0.02058,23.425577 0.160202,3.241671 4.63873,4.822644 6.810424,2.420893 C 52.640786,44.964491 51.808862,42.224455 52,39.897792 51.9863,33.128664 52.02741,26.358161 51.97942,19.589893 51.817384,17.597638 49.998876,15.957572 47.999996,16 Z m 0,2 c 2.101939,-0.03411 2.097998,2.285828 2,3.804972 -0.0258,7.536507 0.05162,15.077808 -0.03874,22.611317 C 49.450902,47.134024 45.240607,45.925157 46,43.343647 46.0258,35.424267 45.94838,27.500093 46.03874,19.583711 46.187543,18.656583 47.0705,17.9692 48,18 Z m 11.6875,5.1875 c -3.325639,0.02315 -5.060792,4.614343 -2.581741,6.83126 3.22823,2.050077 6.342688,4.513497 8.212112,7.940679 4.640469,7.669473 3.104467,18.288158 -3.404795,24.418526 -6.392456,6.446662 -17.282038,7.480776 -24.795029,2.395454 -7.847425,-4.847815 -11.286704,-15.488636 -7.760528,-24.01174 1.691986,-4.511754 5.173572,-8.139247 9.291641,-10.540811 2.607584,-2.069054 1.144311,-6.758654 -2.177211,-6.977678 -2.78199,-0.151911 -4.864426,2.181289 -6.937634,3.707608 C 21.325636,33.963251 17.963357,45.942062 21.25617,56.210794 24.309659,66.675967 34.011271,74.746586 44.863588,75.817366 55.90423,77.16066 67.412781,71.235369 72.60232,61.371403 78.158247,51.472028 76.706855,38.298308 69.248076,29.768602 66.907073,27.137134 64.168714,24.663524 60.894448,23.294728 60.500685,23.197988 60.092139,23.161694 59.6875,23.1875 Z m 0.125,1.96875 c 1.748669,0.139659 3.049276,1.643663 4.462255,2.549895 9.1873,7.137048 12.397857,20.747985 7.330312,31.227249 C 67.110526,69.003786 55.707556,75.317017 44.781552,73.812003 33.850244,72.622644 24.377771,63.7347 22.469653,52.907568 20.23685,42.306699 25.566334,30.747432 35,25.46875 c 1.690027,-1.10489 3.881219,1.153258 2.71875,2.8125 -1.392015,1.405801 -3.395248,2.160339 -4.749842,3.676012 -7.085886,6.449288 -9.05173,17.698903 -4.501247,26.149578 4.459947,8.996729 15.561321,13.904022 25.216084,11.135273 C 63.437948,66.828379 70.591079,57.022469 69.966837,47.003251 69.715657,39.424918 65.144794,32.309966 58.5625,28.65625 c -1.328284,-1.121832 -0.47947,-3.440224 1.25,-3.5 z" />
  <path
     style="color:#000000;display:inline;overflow:visible;visibility:visible;opacity:0.2;fill:#000000;fill-opacity:1;stroke:none;stroke-width:6;marker:none;enable-background:accumulate"
     id="path4307"
     inkscape:connector-curvature="0"
     d="m 48,16 c -2.609899,-0.09191 -4.394451,2.55436 -4,4.98453 0.01371,7.808354 -0.02742,15.618083 0.02058,23.425577 0.160202,3.241671 4.63873,4.822644 6.810424,2.420893 C 52.640786,44.964491 51.808862,42.224455 52,39.897792 51.9863,33.128664 52.02741,26.358161 51.97942,19.589893 51.817384,17.597638 49.998876,15.957572 47.999996,16 Z m 0,0.96875 c 2.657794,-0.07434 3.272162,2.740768 3.03125,4.836222 -0.03994,7.603327 0.08018,15.214484 -0.06059,22.812878 -0.662775,3.905362 -6.865423,2.52605 -6.001908,-1.274203 0,-7.781216 0,-15.562431 0,-23.343647 C 44.920912,18.362607 46.361816,16.921062 48,16.96875 Z m 11.6875,6.21875 c -3.325639,0.02315 -5.060792,4.614343 -2.581741,6.83126 3.22823,2.050077 6.342688,4.513497 8.212112,7.940679 4.640469,7.669473 3.104467,18.288158 -3.404795,24.418526 -6.392456,6.446662 -17.282038,7.480776 -24.795029,2.395454 -7.847425,-4.847815 -11.286704,-15.488636 -7.760528,-24.01174 1.691986,-4.511754 5.173572,-8.139247 9.291641,-10.540811 2.607584,-2.069054 1.144311,-6.758654 -2.177211,-6.977678 -2.78199,-0.151911 -4.864426,2.181289 -6.937634,3.707608 C 21.325636,33.963251 17.963357,45.942062 21.25617,56.210794 24.309659,66.675967 34.011271,74.746586 44.863588,75.817366 55.90423,77.16066 67.412781,71.235369 72.60232,61.371403 78.158247,51.472028 76.706855,38.298308 69.248076,29.768602 66.907073,27.137134 64.168714,24.663524 60.894448,23.294728 60.500685,23.197988 60.092139,23.161694 59.6875,23.1875 Z m 0.0625,0.96875 c 2.156467,0.02689 3.762398,1.837947 5.444945,2.97582 8.965364,7.195733 12.310375,20.399953 7.870098,31.000499 C 69.151216,68.202854 58.706159,75.191303 47.904528,75.021762 36.928337,75.144493 26.359744,67.819764 22.691484,57.455777 18.698758,47.230202 21.825271,34.803456 30.163842,27.677356 32.078816,26.31807 33.957527,24.059525 36.5,24.21875 c 2.726728,0.30251 3.466308,4.377924 1.03125,5.625 -8.219976,4.579813 -12.489663,15.073699 -9.654424,24.076794 2.626912,9.579469 12.762561,16.263236 22.601839,14.909833 C 60.010747,67.86978 68.072508,59.595642 68.874507,50.06437 69.807041,41.854408 65.284637,33.495793 58.0625,29.5625 55.842518,27.955875 57.010397,24.23932 59.75,24.15625 Z" />
  <path
     style="color:#000000;display:inline;overflow:visible;visibility:visible;opacity:0.6;fill:#000000;fill-opacity:1;stroke:none;stroke-width:6;marker:none;enable-background:accumulate"
     id="path4298"
     inkscape:connector-curvature="0"
     d="m 48,16 c -2.216,0 -4,1.784 -4,4 l 0,1 c 0,-2.216 1.784,-4 4,-4 2.216,0 4,1.784 4,4 l 0,-1 c 0,-2.216 -1.784,-4 -4,-4 z m 11.6875,7.1875 A 4.0004,4.0004 0 0 0 55.96875,27.625 4.0004,4.0004 0 0 1 59.6875,24.1875 4.0004,4.0004 0 0 1 62,24.75 C 70.7617,29.80857 75.747889,38.945358 75.96875,48.40625 76.091802,38.591598 71.072192,28.987833 62,23.75 a 4.0004,4.0004 0 0 0 -2.3125,-0.5625 z m -24,0.03125 A 4.0040264,4.0040264 0 0 0 34,23.75 C 29.743638,26.207412 26.207411,29.743638 23.75,34 21.161894,38.48273 19.977849,43.405857 20.03125,48.25 20.143726,43.734427 21.341157,39.172238 23.75,35 26.207411,30.743638 29.743638,27.207412 34,24.75 a 4.0040264,4.0040264 0 0 1 5.96875,2.875 4.0040264,4.0040264 0 0 0 -4.28125,-4.40625 z M 28,48.28125 C 27.734445,55.431777 31.337402,62.465847 38,66.3125 47.606884,71.859037 59.765963,68.606884 65.3125,59 67.191128,55.746121 68.045175,52.202099 68,48.71875 67.882648,51.878658 67.012384,55.055714 65.3125,58 59.765963,67.606884 47.606884,70.859037 38,65.3125 31.646995,61.644591 28.088201,55.082281 28,48.28125 Z" />
</svg>
